<svg width="48" height="48" viewBox="0 0 48 48" fill="none" xmlns="http://www.w3.org/2000/svg">
<g clip-path="url(#clip0_201_2)">
<path d="M24 48C37.2548 48 48 37.2548 48 24C48 10.7452 37.2548 0 24 0C10.7452 0 0 10.7452 0 24C0 37.2548 10.7452 48 24 48Z" fill="#E8E8E8"/>
<path d="M13.7175 32.145V24.8175H22.875L13.7175 32.145Z" fill="#56C7E0"/>
<path d="M14.4225 26.25H33.5625C36.96 26.25 39.7425 23.4675 39.7425 20.07V12.93C39.7425 9.5325 36.96 6.75 33.5625 6.75H14.4225C11.025 6.75 8.24249 9.5325 8.24249 12.93V20.07C8.24249 23.4675 11.025 26.25 14.4225 26.25Z" fill="#56C7E0"/>
<path d="M13.7925 17.67C14.145 17.9025 14.7675 18.1425 15.3675 18.1425C16.2375 18.1425 16.6425 17.7075 16.6425 17.1675C16.6425 16.5975 16.305 16.2825 15.42 15.96C14.2425 15.54 13.68 14.8875 13.68 14.1C13.68 13.0425 14.535 12.1725 15.945 12.1725C16.6125 12.1725 17.19 12.36 17.5575 12.5775L17.2575 13.4475C17.0025 13.2825 16.5225 13.065 15.915 13.065C15.21 13.065 14.8125 13.47 14.8125 13.9575C14.8125 14.4975 15.2025 14.745 16.0575 15.0675C17.1975 15.5025 17.7825 16.0725 17.7825 17.0475C17.7825 18.2025 16.89 19.0125 15.33 19.0125C14.61 19.0125 13.9425 18.8325 13.485 18.5625L13.7925 17.67Z" fill="white"/>
<path d="M19.3275 14.1074C19.3275 13.4324 19.3125 12.8699 19.275 12.3299H20.3175L20.37 13.3874H20.4075C20.775 12.7649 21.3825 12.1799 22.47 12.1799C23.3625 12.1799 24.045 12.7199 24.33 13.4999H24.36C24.5625 13.1324 24.8175 12.8474 25.095 12.6449C25.4925 12.3449 25.92 12.1799 26.55 12.1799C27.42 12.1799 28.71 12.7499 28.71 15.0299V18.8999H27.54V15.1799C27.54 13.9199 27.075 13.1549 26.115 13.1549C25.44 13.1549 24.9075 13.6574 24.705 14.2424C24.6525 14.4074 24.6075 14.6249 24.6075 14.8424V18.8999H23.4375V14.9624C23.4375 13.9199 22.98 13.1549 22.065 13.1549C21.3225 13.1549 20.775 13.7549 20.5875 14.3474C20.52 14.5274 20.49 14.7299 20.49 14.9324V18.8924H19.32V14.1074H19.3275V14.1074Z" fill="white"/>
<path d="M30.4875 17.67C30.84 17.9025 31.4625 18.1425 32.0625 18.1425C32.9325 18.1425 33.3375 17.7075 33.3375 17.1675C33.3375 16.5975 33 16.2825 32.115 15.96C30.9375 15.54 30.375 14.8875 30.375 14.1C30.375 13.0425 31.23 12.1725 32.64 12.1725C33.3075 12.1725 33.885 12.36 34.2525 12.5775L33.9525 13.4475C33.6975 13.2825 33.2175 13.065 32.61 13.065C31.905 13.065 31.5075 13.47 31.5075 13.9575C31.5075 14.4975 31.8975 14.745 32.7525 15.0675C33.8925 15.5025 34.4775 16.0725 34.4775 17.0475C34.4775 18.2025 33.585 19.0125 32.025 19.0125C31.305 19.0125 30.6375 18.8325 30.18 18.5625L30.4875 17.67Z" fill="white"/>
<path d="M40.86 34.515H25.4025C24.63 34.515 24 33.885 24 33.1125V23.2725C24 22.5 24.63 21.87 25.4025 21.87H40.86C41.6325 21.87 42.2625 22.5 42.2625 23.2725V33.105C42.2625 33.885 41.6325 34.515 40.86 34.515Z" fill="white"/>
<path d="M38.0475 38.73V33.1125H31.02L38.0475 38.73Z" fill="white"/>
<path d="M33.8325 26.085H32.43V27.4875H33.8325V26.085Z" fill="#56C7E0"/>
<path d="M31.02 26.085H29.6175V27.4875H31.02V26.085Z" fill="#56C7E0"/>
<path d="M28.2075 26.085H26.805V27.4875H28.2075V26.085Z" fill="#56C7E0"/>
<path d="M36.6375 26.085H35.235V27.4875H36.6375V26.085Z" fill="#56C7E0"/>
<path d="M39.45 26.085H38.0475V27.4875H39.45V26.085Z" fill="#56C7E0"/>
<path d="M33.8325 28.8975H32.43V30.3H33.8325V28.8975Z" fill="#56C7E0"/>
<path d="M36.6375 28.8975H35.235V30.3H36.6375V28.8975Z" fill="#56C7E0"/>
<path d="M39.45 28.8975H38.0475V30.3H39.45V28.8975Z" fill="#56C7E0"/>
</g>
<defs>
<clipPath id="clip0_201_2">
<rect width="48" height="48" fill="white"/>
</clipPath>
</defs>
</svg>
